<svg width="38" height="36" viewBox="0 0 38 36" fill="none" xmlns="http://www.w3.org/2000/svg">
<path d="M18.0685 2.38645C18.3997 1.53795 19.6003 1.53795 19.9315 2.38645L23.8452 12.4126C23.9874 12.7767 24.3286 13.0246 24.7188 13.0473L35.4636 13.6712C36.3729 13.724 36.744 14.8659 36.0393 15.4431L27.7133 22.2634C27.411 22.5111 27.2806 22.9123 27.3796 23.2904L30.1066 33.7021C30.3374 34.5832 29.366 35.289 28.5994 34.7972L19.5399 28.9863C19.2109 28.7753 18.7891 28.7753 18.4601 28.9863L9.40065 34.7972C8.63396 35.289 7.6626 34.5832 7.89338 33.7021L10.6204 23.2904C10.7194 22.9123 10.589 22.5111 10.2867 22.2634L1.96065 15.4431C1.25603 14.8659 1.62706 13.724 2.53638 13.6712L13.2812 13.0473C13.6714 13.0246 14.0126 12.7767 14.1548 12.4126L18.0685 2.38645Z" fill="#C4C4C4" stroke="black" stroke-width="2"/>
</svg>
