<svg width="298" height="285" viewBox="0 0 298 285" fill="none" xmlns="http://www.w3.org/2000/svg">
<path d="M138.753 7.2509C142.396 -2.08258 155.604 -2.08257 159.247 7.25091L190.871 88.2657C192.434 92.2709 196.188 94.9981 200.48 95.2473L287.302 100.289C297.305 100.869 301.386 113.43 293.635 119.779L226.358 174.891C223.032 177.615 221.598 182.028 222.688 186.187L244.723 270.318C247.261 280.01 236.576 287.773 228.143 282.364L154.939 235.409C151.32 233.088 146.68 233.088 143.061 235.409L69.8575 282.364C61.4239 287.773 50.7389 280.01 53.2775 270.318L75.3125 186.187C76.4018 182.028 74.9681 177.615 71.642 174.891L4.3647 119.779C-3.38612 113.43 0.6952 100.869 10.6977 100.289L97.5197 95.2473C101.812 94.9981 105.566 92.2709 107.129 88.2657L138.753 7.2509Z" fill="#C4C4C4"/>
</svg>
